<?xml version="1.0" encoding="UTF-8"?>
<svg width="101px" height="41px" viewBox="0 0 101 41" version="1.1" xmlns="http://www.w3.org/2000/svg" xmlns:xlink="http://www.w3.org/1999/xlink">
    <!-- Generator: Sketch 48.2 (47327) - http://www.bohemiancoding.com/sketch -->
    <title>Group 3</title>
    <desc>Created with Sketch.</desc>
    <defs></defs>
    <g id="French-Toast" stroke="none" stroke-width="1" fill="none" fill-rule="evenodd" transform="translate(-346.000000, -601.000000)">
        <g id="Group-3" transform="translate(346.000000, 601.000000)">
            <g id="Page-1">
                <polygon id="Fill-1" fill="#003766" points="0 40.965 101 40.965 101 0 0 0"></polygon>
                <polygon id="Fill-2" fill="#D7EFEE" points="15.3008 9.0828 15.3008 11.2428 20.1418 11.2428 20.1418 13.2718 15.3008 13.2718 15.3008 17.2008 13.0688 17.2008 13.0688 7.0538 20.7948 7.0538 20.7948 9.0828"></polygon>
                <g id="Group-25" transform="translate(17.000000, 5.965000)" fill="#D7EFEE">
                    <path d="M14.8096,4.5529 C14.8096,3.5959 14.1426,3.1029 13.0556,3.1029 L10.8376,3.1029 L10.8376,6.0169 L13.0996,6.0169 C14.1856,6.0169 14.8096,5.4369 14.8096,4.5819 L14.8096,4.5529 Z M14.7666,11.2359 L12.5916,7.9889 L10.8376,7.9889 L10.8376,11.2359 L8.6056,11.2359 L8.6056,1.0889 L13.2446,1.0889 C15.6356,1.0889 17.0706,2.3499 17.0706,4.4369 L17.0706,4.4659 C17.0706,6.1039 16.1866,7.1329 14.8966,7.6119 L17.3756,11.2359 L14.7666,11.2359 Z" id="Fill-3"></path>
                    <polygon id="Fill-5" points="22.1138 11.2355 22.1138 1.0885 29.7678 1.0885 29.7678 3.0745 24.3318 3.0745 24.3318 5.1325 29.1148 5.1325 29.1148 7.1185 24.3318 7.1185 24.3318 9.2495 29.8398 9.2495 29.8398 11.2355"></polygon>
                    <polygon id="Fill-7" points="41.9712 11.2355 37.0572 4.7845 37.0572 11.2355 34.8542 11.2355 34.8542 1.0885 36.9122 1.0885 41.6672 7.3365 41.6672 1.0885 43.8702 1.0885 43.8702 11.2355"></polygon>
                    <path d="M54.0874,11.4095 C51.1014,11.4095 48.8834,9.1045 48.8834,6.1905 L48.8834,6.1625 C48.8834,3.2775 51.0584,0.9145 54.1744,0.9145 C56.0874,0.9145 57.2334,1.5525 58.1754,2.4805 L56.7544,4.1185 C55.9724,3.4075 55.1744,2.9725 54.1604,2.9725 C52.4494,2.9725 51.2174,4.3935 51.2174,6.1335 L51.2174,6.1625 C51.2174,7.9015 52.4204,9.3515 54.1604,9.3515 C55.3194,9.3515 56.0294,8.8875 56.8274,8.1625 L58.2484,9.5975 C57.2044,10.7135 56.0444,11.4095 54.0874,11.4095" id="Fill-9"></path>
                    <polygon id="Fill-11" points="69.4077 11.2355 69.4077 7.1625 65.2907 7.1625 65.2907 11.2355 63.0587 11.2355 63.0587 1.0885 65.2907 1.0885 65.2907 5.1035 69.4077 5.1035 69.4077 1.0885 71.6397 1.0885 71.6397 11.2355"></polygon>
                    <polygon id="Fill-13" points="6.0718 19.3915 6.0718 27.4805 3.8398 27.4805 3.8398 19.3915 0.7518 19.3915 0.7518 17.3335 9.1588 17.3335 9.1588 19.3915"></polygon>
                    <path d="M21.4644,22.4067 C21.4644,20.6667 20.1894,19.2177 18.3914,19.2177 C16.5934,19.2177 15.3474,20.6387 15.3474,22.3777 L15.3474,22.4067 C15.3474,24.1467 16.6234,25.5957 18.4204,25.5957 C20.2174,25.5957 21.4644,24.1757 21.4644,22.4357 L21.4644,22.4067 Z M18.3914,27.6547 C15.2604,27.6547 13.0134,25.3207 13.0134,22.4357 L13.0134,22.4067 C13.0134,19.5217 15.2894,17.1597 18.4204,17.1597 C21.5514,17.1597 23.7984,19.4927 23.7984,22.3777 L23.7984,22.4067 C23.7984,25.2917 21.5224,27.6547 18.3914,27.6547 Z" id="Fill-15"></path>
                    <path d="M32.6396,19.9424 L31.2916,23.2334 L33.9876,23.2334 L32.6396,19.9424 Z M35.7126,27.4804 L34.7856,25.2044 L30.4936,25.2044 L29.5666,27.4804 L27.2906,27.4804 L31.6396,17.2604 L33.6976,17.2604 L38.0466,27.4804 L35.7126,27.4804 Z" id="Fill-17"></path>
                    <path d="M46.1045,27.6252 C44.5675,27.6252 43.0165,27.0892 41.7995,26.0012 L43.1185,24.4222 C44.0315,25.1752 44.9885,25.6542 46.1475,25.6542 C47.0615,25.6542 47.6115,25.2912 47.6115,24.6972 L47.6115,24.6682 C47.6115,24.1032 47.2645,23.8132 45.5685,23.3782 C43.5245,22.8562 42.2055,22.2912 42.2055,20.2762 L42.2055,20.2472 C42.2055,18.4062 43.6835,17.1882 45.7565,17.1882 C47.2355,17.1882 48.4965,17.6522 49.5255,18.4782 L48.3655,20.1602 C47.4675,19.5362 46.5835,19.1592 45.7275,19.1592 C44.8725,19.1592 44.4225,19.5512 44.4225,20.0442 L44.4225,20.0732 C44.4225,20.7402 44.8575,20.9572 46.6115,21.4062 C48.6705,21.9432 49.8305,22.6822 49.8305,24.4502 L49.8305,24.4792 C49.8305,26.4942 48.2935,27.6252 46.1045,27.6252" id="Fill-19"></path>
                    <polygon id="Fill-21" points="59.1792 19.3915 59.1792 27.4805 56.9472 27.4805 56.9472 19.3915 53.8592 19.3915 53.8592 17.3335 62.2662 17.3335 62.2662 19.3915"></polygon>
                    <path d="M65.2085,24.7817 L64.7395,24.7817 L64.7395,25.4197 L65.2195,25.4197 C65.4625,25.4197 65.5925,25.2897 65.5925,25.1037 C65.5925,24.8887 65.4455,24.7817 65.2085,24.7817 M65.6095,25.7527 L66.1405,26.5317 L65.5815,26.5317 L65.1185,25.8317 L64.7395,25.8317 L64.7395,26.5317 L64.2605,26.5317 L64.2605,24.3587 L65.2255,24.3587 C65.7455,24.3587 66.0785,24.6237 66.0785,25.0747 C66.0785,25.4307 65.8865,25.6507 65.6095,25.7527 M65.1065,23.6867 C64.0735,23.6867 63.2945,24.5047 63.2945,25.5097 C63.2945,26.5147 64.0685,27.3227 65.0955,27.3227 C66.1285,27.3227 66.9075,26.5037 66.9075,25.4987 C66.9075,24.4937 66.1345,23.6867 65.1065,23.6867 M65.0955,27.5477 C63.9495,27.5477 63.0575,26.6277 63.0575,25.5097 C63.0575,24.3917 63.9605,23.4607 65.1065,23.4607 C66.2525,23.4607 67.1455,24.3807 67.1455,25.4987 C67.1455,26.6167 66.2415,27.5477 65.0955,27.5477" id="Fill-23"></path>
                </g>
            </g>
        </g>
    </g>
</svg>