<?xml version="1.0" encoding="UTF-8"?>
<svg width="87px" height="17px" viewBox="0 0 87 17" version="1.1" xmlns="http://www.w3.org/2000/svg" xmlns:xlink="http://www.w3.org/1999/xlink">
    <!-- Generator: Sketch 48.1 (47250) - http://www.bohemiancoding.com/sketch -->
    <title>Marriott-Logo</title>
    <desc>Created with Sketch.</desc>
    <defs>
        <polygon id="path-1" points="0 0 87 0 87 17 0 17"></polygon>
    </defs>
    <g id="Page-1" stroke="none" stroke-width="1" fill="none" fill-rule="evenodd">
        <g id="Marriott-Logo">
            <g id="Page-1-Copy">
                <mask id="mask-2" fill="white">
                    <use xlink:href="#path-1"></use>
                </mask>
                <g id="Clip-2"></g>
                <path d="M85.753114,12.9339971 L85.753114,12.6255494 L85.9807776,12.6255494 C86.1309467,12.6255494 86.1716598,12.6724597 86.1716598,12.7619928 C86.1716598,12.8550567 86.1309467,12.9285747 85.9528745,12.9339971 L85.753114,12.9339971 Z M85.9111468,13.1216383 C85.9777336,13.127439 86.040896,13.1216383 86.0868092,13.1708184 C86.1417275,13.2281952 86.1417275,13.323529 86.155679,13.4268073 C86.1643036,13.4978032 86.1828211,13.5744738 86.1966457,13.6421911 L86.4378803,13.6421911 C86.3970404,13.5333643 86.3832157,13.4076397 86.3662202,13.2936426 C86.3474491,13.1631261 86.3275364,13.0896081 86.1615133,13.0565692 L86.1615133,13.0507684 C86.3223363,13.0187383 86.4074406,12.9091548 86.4074406,12.7698111 C86.4074406,12.4970505 86.1776209,12.4376561 85.9550307,12.4376561 L85.5629928,12.4376561 L85.5629928,13.6421911 L85.753114,13.6421911 L85.753114,13.1216383 L85.9111468,13.1216383 Z M85.9712652,14.0815336 C86.5421363,14.0815336 87,13.6236539 87,13.0535427 C87,12.4891061 86.5421363,12.0308481 85.9712652,12.0308481 C85.3989989,12.0308481 84.9380912,12.4884755 84.9380912,13.0535427 C84.9380912,13.6236539 85.3989989,14.0815336 85.9712652,14.0815336 Z M85.9712652,13.9014586 C85.4999573,13.9014586 85.1179391,13.5228977 85.1179391,13.0535427 C85.1179391,12.5901145 85.4999573,12.2111752 85.9712652,12.2111752 C86.4409243,12.2111752 86.8191375,12.5901145 86.8191375,13.0535427 C86.8191375,13.5228977 86.4409243,13.9014586 85.9712652,13.9014586 Z M42.3286079,8.2260711 C42.305905,7.80110429 41.9987178,7.75595945 41.7820886,7.75595945 C41.0761414,7.85797671 40.4687427,8.44574237 40.1307352,9.04700104 C39.8291286,9.58457774 39.7581026,10.0377916 39.7317216,10.5077771 C39.7296923,11.0144586 39.6982379,11.3906236 39.9031985,11.7756158 C40.0165864,12.0252996 40.2674602,12.1384139 40.5067923,12.2062572 C40.9618657,12.2962947 41.3833286,12.1719572 41.7368096,11.9342533 C42.56794,11.4703207 42.4194197,10.5411944 42.4318492,9.71522036 L42.3286079,8.2260711 Z M37.1013515,10.3601106 C37.1803679,9.26238481 37.7848495,8.23111521 38.8091452,7.67676682 C39.8234212,7.05407066 41.0080326,6.804513 42.055158,6.26138777 C42.237162,6.11409957 42.4655866,5.93288969 42.4764941,5.69543791 C42.4882895,5.40111372 42.3404033,5.17450679 42.077861,5.07274174 C40.4840893,4.7330205 39.1626261,5.7297379 38.0013518,6.71434942 C38.149238,5.9897621 38.26326,5.19707921 38.6051992,4.51763673 C38.7749005,4.33655296 38.878015,4.0869953 39.1055517,3.95130857 C40.2330887,3.39670797 41.6452368,3.23844882 42.9096256,3.3286124 C43.9458435,3.39670797 44.9026645,4.13239235 45.2561455,5.07274174 C45.4376422,5.51435413 45.4258468,6.01258673 45.4609793,6.46479176 L45.4727746,12.6025987 C45.4836822,13.1343746 45.7340487,13.6327333 46.0522703,14.0633748 L43.1027908,14.0633748 C42.7501977,13.746226 42.5759305,13.3497584 42.4764941,12.8515258 C41.6519589,13.5763653 39.9279308,14.6518971 38.9007179,13.9390373 C37.8360896,13.4627466 36.8620194,11.8662838 37.1013515,10.3601106 Z M24.3685545,7.68798998 L23.2913698,9.88028907 C22.5590415,11.1744832 21.5317019,12.7603534 19.9570819,13.154425 C19.3468928,13.3667823 18.8083639,13.1754842 18.2187217,13.1343746 L16.3177628,16.226418 C16.4604489,16.3784981 16.6616045,16.505862 16.8569259,16.580515 C20.2008531,17.8493624 21.5478095,16.4844245 24.8404966,9.08697566 L27.9516869,15.676231 L32.0938951,15.676231 L30.1363691,11.229338 L31.2450081,8.93060805 L34.3041973,15.5747182 L38.2684601,15.6001909 L31.3306198,0.441107978 L28.1353397,2.02054692 L30.6398924,7.67676682 L29.5422878,9.90071774 L24.9524893,0.0494323405 L21.585986,1.75472199 L24.3685545,7.68798998 Z M46.7027919,12.2285774 C46.7386854,12.9124335 46.9068647,13.5877146 47.4989168,14.0402979 L50.3473111,14.0402979 C49.8373194,13.5763653 49.6667303,12.6846917 49.6748475,11.7081507 L49.6748475,6.05735326 C50.0502704,5.7209107 50.7049775,5.5651736 51.3262009,5.83112464 C51.5305274,5.93288969 51.6453104,5.9897621 51.8048651,6.11409957 L53.0574585,4.1779155 C52.8862352,3.94046372 52.624327,3.75849722 52.3513844,3.6233149 C51.7016238,3.31688483 50.6992701,3.32899071 50.1306819,3.80402037 L49.6289343,4.20124453 C49.5028633,3.9745115 49.4919557,3.6795568 49.2526236,3.50969618 L46.303271,3.49872523 C46.5490715,3.83857257 46.6601764,4.10591073 46.679328,4.71587051 L46.7027919,12.2285774 Z M77.8502086,14.0629965 C77.5253917,13.7738425 77.2978549,13.3777533 77.2297461,12.7044898 L77.2355804,4.34588457 L78.2827059,4.34752391 L78.6586361,3.35660725 L77.2334243,3.35433739 L77.2355804,0 L74.1257852,1.14350118 L74.1257852,3.43037745 L72.8279128,3.43037745 L72.4517289,4.32520369 L74.1257852,4.32810406 L74.1061262,9.15759329 C74.0855794,12.3078962 74.2223044,13.6042341 75.1055628,14.0629965 L77.8502086,14.0629965 Z M67.9078436,11.4023512 C68.0440612,11.9005838 68.3067304,12.5119307 68.9103242,12.5800263 C69.2630441,12.5908711 69.5250792,12.2965469 69.7290251,12.047872 C70.3678782,10.801723 70.2765591,9.44271197 70.2765591,8.02808953 C70.0715985,6.97475193 70.3217113,5.53717876 69.1831399,4.89127966 C68.7845068,4.74386535 68.4771927,5.01561712 68.2268262,5.26441816 C67.7820262,5.93263748 67.7309129,6.69682111 67.7030098,7.54688083 C67.5553773,8.90513527 67.7146784,10.0319909 67.9078436,11.4023512 Z M65.0614786,5.74058275 C65.3571241,4.92532744 66.2790663,4.51725843 66.9501347,4.07652876 C67.9759524,3.70250753 69.1034894,2.77426401 70.2529683,3.53264691 C71.2101699,4.15534308 72.0528421,4.85697966 72.6566895,5.82027979 C72.8052098,6.1934183 72.8731918,6.61207996 72.9756721,7.00854751 C72.9756721,7.54108009 73.08906,7.93716933 73.0780256,8.46932361 C73.1125239,9.04737935 73.1125239,9.56831047 73.0780256,10.1341342 C73.0445419,11.0959211 72.5885807,11.9569518 71.8253053,12.6244145 C70.6869876,13.632355 69.2520097,14.7766128 67.7030098,13.9954053 C66.3134378,13.349254 64.6723578,12.0704444 64.7763601,10.3153441 C64.7191588,9.06957346 64.6613234,7.99391564 64.8333077,6.78194058 C64.9006555,6.43099618 64.866284,6.0461301 65.0614786,5.74058275 Z M60.710378,10.0883589 C60.7841943,11.6514044 60.4702849,13.1660265 61.4273596,14.0859472 L64.3548972,14.0797682 C64.0014162,13.7065035 63.8191586,13.2254209 63.7057707,12.7495086 L63.6830678,4.74424366 C63.6144516,4.51763673 63.6253592,4.24601107 63.477473,4.05357803 C63.4211596,3.83857257 63.3180451,3.61196564 63.1359143,3.47627891 L60.40002,3.47627891 C60.8698059,4.09317434 60.710378,4.94752155 60.7329541,5.66126402 L60.710378,10.0883589 Z M56.6324737,4.20124453 C56.5075441,3.9745115 56.4957487,3.6795568 56.2571776,3.50969618 L53.307064,3.49872523 C53.5527377,3.83857257 53.7093753,4.10729787 53.683121,4.71587051 L53.7064581,12.2285774 C53.7635326,12.8626229 53.9112919,13.5877146 54.5041049,14.0402979 L57.3509773,14.0402979 C56.8409856,13.5763653 56.6705233,12.6846917 56.6787674,11.7081507 L56.6787674,6.05735326 C57.0539366,5.7209107 57.7088974,5.5651736 58.3301208,5.83112464 C58.5348277,5.93288969 58.6489766,5.9897621 58.8078971,6.11409957 L60.0618857,4.1779155 C59.8891404,3.94046372 59.6281201,3.75849722 59.3553043,3.6233149 C58.706051,3.31688483 57.7030631,3.32899071 57.134475,3.80402037 L56.6324737,4.20124453 Z M84.2159095,14.0629965 C83.8909658,13.7738425 83.6634291,13.3777533 83.5953203,12.7044898 L83.6011545,4.34588457 L84.649802,4.34752391 L85.025098,3.35660725 L83.5997594,3.35433739 L83.6011545,0 L80.4917398,1.14350118 L80.4917398,3.43037745 L79.1942479,3.43037745 L78.8183177,4.32520369 L80.4917398,4.32810406 L80.4718272,9.15759329 C80.4520414,12.3078962 80.5895273,13.6042341 81.471137,14.0629965 L84.2159095,14.0629965 Z M13.5019643,12.140932 C15.9078416,8.51837372 13.8803043,2.57224322 8.69629766,1.73782027 L13.5019643,12.140932 Z M10.9587279,14.7893453 C11.1993283,14.6834189 11.6836999,14.4436972 11.8036831,13.9319716 L6.14621232,1.73113681 C5.76799912,1.6828394 5.49366138,1.64904382 5.0122069,1.99027829 L10.9587279,14.7893453 Z M6.0159558,8.88104568 C5.97498904,11.0539249 3.53423293,12.9611053 1.36832189,12.721762 C3.01904112,15.6261642 8.27699088,16.7883286 8.80664155,15.0183482 L6.0159558,8.88104568 Z M4.70260984,6.10564675 C5.01880216,6.96655131 5.73438863,7.85570293 5.22515792,8.85292473 C4.97770858,9.86452227 4.01556059,10.6846956 2.99786016,10.8488816 C1.93982714,10.9447198 0.921999881,10.7674191 0.138304599,10.1245465 C-0.425844391,7.19908508 0.770562405,4.49203392 3.09437936,2.8791777 L4.70260984,6.10564675 Z" id="Fill-1" fill="#C0022E" mask="url(#mask-2)"></path>
            </g>
        </g>
    </g>
</svg>