<?xml version="1.0" encoding="UTF-8"?>
<svg width="3994px" height="883px" viewBox="0 0 3994 883" version="1.1" xmlns="http://www.w3.org/2000/svg" xmlns:xlink="http://www.w3.org/1999/xlink">
    <!-- Generator: Sketch 48.1 (47250) - http://www.bohemiancoding.com/sketch -->
    <title>Allstate-Logo</title>
    <desc>Created with Sketch.</desc>
    <defs></defs>
    <g id="Page-1" stroke="none" stroke-width="1" fill="none" fill-rule="evenodd">
        <g id="Allstate-Logo" fill="#006CA9">
            <g id="Group-40">
                <g id="Group-39">
                    <path d="M568.544594,0 C255.076144,0 0,194.602527 0,433.935967 C0,673.154121 255.076144,883 568.544594,883 C882.064008,883 1137,673.154121 1137,433.935967 C1137,194.602527 882.064008,0 568.544594,0 M568.570076,853.345916 C297.172626,853.345916 76.3572093,657.57772 76.3572093,434.448348 C76.3572093,211.203691 297.172626,29.6284653 568.570076,29.6284653 C840.043972,29.6284653 1060.7702,211.203691 1060.7702,434.448348 C1060.7702,657.57772 840.043972,853.345916 568.570076,853.345916" id="Fill-28"></path>
                    <path d="M471.695367,590.730179 L481.703088,600.502006 C481.703088,600.527062 501.901198,611.313656 501.901198,611.313656 L520.951096,621.298458 L523.404097,622.601369 L537.430563,630.130687 L561.112456,642.558446 C562.521627,642.97187 565.392159,642.97187 565.392159,642.97187 L595.832852,641.142784 C613.330053,640.817057 633.684738,641.142784 647.385007,647.106104 C662.403111,654.535198 657.301392,667.965197 657.301392,667.965197 C657.301392,667.965197 672.854459,657.316411 669.918687,644.600508 C668.379038,633.889082 654.97887,619.73246 610.603047,617.25192 C596.602677,616.450129 575.647789,618.354382 575.647789,618.354382 C575.647789,618.354382 573.847182,618.354382 573.729751,618.354382 C573.729751,618.028655 553.831742,605.738703 553.831742,605.738703 L545.468054,601.191045 C544.319841,600.689926 517.937037,587.310039 517.937037,587.310039 C517.937037,587.310039 501.209661,581.008464 501.15747,580.958352 C501.15747,580.46976 486.178509,560.399931 486.178509,560.399931 L480.672306,552.945781 C480.607066,552.920725 464.74085,530.846418 464.74085,530.846418 L457.929859,521.237455 C457.499279,520.723807 448.731107,507.694704 448.731107,507.694704 C449.44874,507.882624 457.812428,495.6052 456.859933,482.50093 C455.71172,484.267375 454.824465,484.730911 448.639772,489.817272 C442.3246,494.753298 423.640043,502.783735 411.140179,505.928259 L405.529592,507.368977 L471.695367,590.730179 Z M544.841756,558.909101 L547.855815,562.604856 C549.121459,563.632151 567.949543,570.835741 567.949543,570.835741 C580.514647,575.771766 597.75089,583.338668 605.710094,588.04919 L627.04337,600.063526 C628.687402,600.752565 650.633928,599.17404 665.038782,600.276502 C683.097041,601.629524 697.136555,608.169132 704.430317,618.354382 C714.294511,631.734269 702.277418,646.053754 702.277418,646.053754 C704.926137,644.813483 725.306918,632.373196 723.897747,612.503814 C722.514672,593.411167 705.39586,575.571319 641.735277,576.322998 C641.735277,576.18519 624.198933,566.388307 624.198933,566.388307 L619.071118,563.519399 L590.861612,549.613337 C590.861612,549.613337 567.949543,542.109075 567.77992,542.109075 L567.77992,542.084019 C567.77992,541.282228 562.404196,532.362304 562.404196,532.362304 C554.953859,519.458481 544.606894,506.692466 535.6691,495.404753 L532.915998,492.210117 C532.915998,492.210117 517.284643,471.488832 515.444893,468.870484 C520.37699,458.622593 516.214718,443.864629 516.214718,443.864629 C516.214718,443.864629 513.565999,448.800654 509.2602,454.074935 C504.915258,459.374272 493.367888,468.181445 485.291253,472.378319 L481.01155,475.04678 L538.748398,550.7158 L544.841756,558.909101 Z M570.859219,423.444016 C574.356049,411.279344 567.636394,399.302592 567.636394,399.302592 L564.243946,407.057413 C561.360366,413.784941 553.727359,421.452066 541.853792,428.831049 L538.343914,430.672662 L585.042259,494.753298 C585.042259,494.803409 587.808409,498.950172 587.808409,498.950172 L596.694012,510.513501 C597.920512,511.603435 616.239729,521.57571 616.239729,521.57571 L623.168151,525.321577 L644.227421,537.386025 L663.512181,549.726089 L664.921351,550.114456 L693.691916,551.868374 C710.954255,553.284036 721.079406,559.460332 726.3377,562.993223 C744.51339,575.546263 734.779675,594.400878 734.779675,594.400878 C734.779675,594.400878 759.074819,572.401739 743.117267,548.53593 C737.141341,540.305045 728.895083,532.362304 704.704323,529.681315 C704.704323,529.681315 675.033455,525.772585 674.981263,525.772585 C674.981263,525.572137 659.03676,515.198967 659.03676,515.198967 L638.134063,502.783735 L632.758339,499.689323 L615.574287,492.535844 L570.859219,423.444016 Z M376.876458,43.1445503 C378.40306,44.5852684 383.204678,49.2957902 383.204678,49.3333741 L406.703901,69.9920188 C406.703901,70.1298267 420.169308,82.1942747 420.169308,82.1942747 C430.111789,91.3271747 432.434311,96.0251684 432.147258,97.8166701 C431.716678,99.5831157 429.876927,100.435019 428.102416,101.399673 C426.340953,102.364328 423.561756,103.003255 423.561756,103.003255 L422.439639,111.559868 L427.984985,111.334364 C458.986737,110.620269 488.20093,130.765267 507.107301,147.903548 C539.922707,177.920596 564.64843,226.579284 570.193777,272.030808 L595.832852,400.066799 L605.449136,419.798373 L607.32803,423.807327 L611.542494,432.163492 C615.182851,440.532185 620.806485,447.923695 621.289257,448.387231 C621.928602,448.963518 634.571994,458.622593 634.571994,458.622593 L653.086928,476.788169 L658.60618,482.43829 L667.439591,490.944791 C668.170272,491.44591 694.200783,494.665602 694.200783,494.665602 C739.65958,501.956888 737.715447,526.160952 737.715447,526.160952 C737.715447,526.160952 764.737597,486.334493 700.241949,472.340735 C700.241949,472.340735 679.874216,468.619924 679.456684,468.619924 C679.456684,468.619924 679.456684,468.619924 679.456684,468.532228 C679.456684,468.093749 672.162922,458.622593 672.162922,458.622593 C671.301762,457.745634 669.749065,456.029301 669.749065,456.029301 C669.344581,455.540709 650.059821,437.350077 650.059821,437.350077 L641.213362,429.269528 C641.213362,429.06908 633.136727,408.485604 633.136727,408.485604 L621.719836,381.938807 C618.823208,373.770561 616.918218,360.716403 614.308643,342.726218 C614.165117,342.037179 612.351462,329.722172 612.351462,329.722172 L603.870343,276.052291 C603.987774,275.162804 605.775333,265.516256 605.775333,265.516256 C609.454834,245.396315 617.33575,223.159144 629.117982,199.230696 C643.287974,170.579198 672.593502,151.649415 672.97189,151.536663 C694.787938,138.520088 726.885711,131.36661 744.069762,128.222086 C750.619796,127.620743 752.707456,123.887404 753.868717,120.141537 L754.651589,118.011779 L752.472594,117.660996 C742.960693,115.944662 732.013526,112.875306 731.113222,111.196556 C730.9436,110.870829 730.773977,110.156734 730.773977,109.542863 C730.773977,107.914225 732.013526,105.408628 734.296904,102.0386 C734.414335,102.0386 748.336417,89.1222496 748.336417,89.1222496 L756.465244,81.3423718 C756.465244,81.3423718 790.611533,49.6841577 795.100002,45.4872832 L763.419761,35.2268648 C759.244441,39.3610993 728.373168,70.1047707 728.373168,70.1047707 C705.187094,94.0081631 678.973913,121.018495 666.95682,125.816713 C637.494718,137.354986 607.32803,164.979189 595.428368,191.475874 C595.428368,191.588626 590.19617,204.580145 587.377829,211.708568 C578.46613,187.02844 567.323245,166.582771 552.057231,148.780507 C535.382046,129.575108 515.040409,115.255623 489.714483,105.408628 C476.014214,92.8430607 430.881614,53.217049 406.416848,33.9615385 L376.876458,43.1445503 Z M497.360538,689.300352 C455.868295,709.558102 432.982322,692.006397 443.042233,670.671241 C456.546784,679.390718 477.475576,685.767461 497.360538,689.300352 Z M426.197427,659.0578 C397.922681,666.474367 387.484381,647.38172 394.151845,631.90966 C399.52757,637.860452 419.503867,655.08643 426.197427,659.0578 Z M172.272727,173.811418 C174.425627,175.277192 180.010117,179.135811 180.010117,179.135811 C180.779942,179.63693 215.813487,207.536749 221.019589,211.708568 C220.158429,213.825797 205.727479,252.236594 205.727479,252.236594 C192.483886,284.220536 179.227245,316.429981 178.444372,341.811676 L178.679234,345.895798 C178.796665,346.509669 190.174412,403.461882 190.174412,403.461882 L191.100811,407.721397 C197.507318,437.625693 204.696697,471.68928 207.736852,496.206544 C208.428389,503.109462 210.150709,507.281281 212.96905,508.934975 C230.270533,526.211064 258.558326,561.33953 292.691568,628.339185 C293.696254,630.118159 294.192073,631.157981 294.740084,631.922188 C297.949861,641.142784 302.099086,647.31908 307.04423,650.338324 C313.30721,654.034079 325.141633,654.284639 332.879023,650.338324 C350.376224,639.351282 362.732562,623.929335 370.300329,605.325279 C373.001239,608.419691 380.24281,617.502479 381.391023,618.792862 C352.020256,667.664525 403.989943,685.830101 422.439639,678.839486 C411.766477,708.455639 451.144964,732.296392 488.279217,716.423437 C493.080835,735.628835 508.920955,741.266428 524.069538,744.04764 C539.100691,746.954132 559.585855,748.495074 592.975367,745.626166 C643.222735,741.654795 688.890298,726.946943 707.222563,717.801515 C746.000848,698.846676 767.151453,674.65514 779.573031,657.75489 C779.807892,657.379051 782.012983,654.723118 783.539585,652.818865 C787.610522,659.809479 791.903273,666.349087 796.796226,671.36028 C809.204755,682.923609 820.804316,688.147778 830.264026,686.4565 C836.996729,685.266342 842.281119,681.269915 845.817093,673.878405 C863.014193,634.051945 900.631217,584.992362 930.080271,552.118934 C930.080271,552.01871 932.898612,546.882237 932.898612,546.882237 C939.331215,523.530076 962.243283,465.713432 974.443047,434.481169 L983.119884,412.018495 C983.119884,411.905743 984.842203,406.606406 984.842203,406.606406 C985.442406,397.673954 985.755555,388.703918 985.755555,379.871689 C985.755555,339.694446 979.662197,301.271121 968.167019,268.773532 C962.582528,252.32429 956.841463,242.364543 951.504882,232.667884 L945.25495,221.768538 C953.618638,209.791786 978.057308,194.006527 997.629121,181.290624 C997.629121,181.290624 998.751238,180.664225 999.181818,180.463777 L975.147632,155.207362 C973.660174,156.172017 958.328921,166.357268 958.328921,166.357268 C940.883912,177.782788 923.190993,182.418142 912.269921,178.233796 C910.625889,177.619925 896.116652,169.752351 896.116652,169.752351 C895.281588,169.176064 892.724204,168.023489 892.724204,168.023489 C892.202289,167.935793 887.805155,167.346978 887.805155,167.346978 C887.178857,167.409618 882.351144,168.374273 882.351144,168.374273 L879.219654,169.125952 L884.164798,174.613209 C894.394332,186.289289 899.678722,196.324204 907.102963,209.929594 C907.324777,210.242794 911.526193,217.884863 911.526193,217.884863 C911.526193,217.909919 915.753704,227.368547 915.753704,227.368547 C924.678451,248.403031 932.676798,270.940873 937.70023,292.914956 C947.52528,332.678776 952.535664,365.464508 952.796622,393.477079 C952.796622,393.865447 952.326898,396.646659 952.326898,396.646659 C952.261659,396.809523 938.704917,433.516514 938.704917,433.516514 C924.704547,471.576528 907.102963,518.982418 903.162505,538.488488 L902.314393,540.806165 C864.710416,578.427699 838.027512,622.789288 826.728052,649.311029 C824.927445,652.818865 823.687897,653.294928 823.231221,653.370096 C821.495854,653.670768 817.072624,649.787093 814.724006,647.745031 C805.290393,639.576786 799.627615,622.626425 800.345248,604.63624 C801.271647,582.637101 811.122793,563.080919 827.563116,550.7158 C830.264026,548.748906 829.233244,545.140847 828.633041,543.07373 C824.053237,518.017763 831.425287,479.682133 847.513317,468.8329 L851.675589,465.91388 L847.604652,462.957276 C801.5587,428.718297 779.02502,365.301645 777.106982,317.970923 L776.87212,311.794627 L769.708837,314.713647 C768.912917,315.352575 766.212006,319.374057 766.212006,319.374057 C764.359208,328.569597 763.589384,337.953057 763.589384,346.973205 C763.589384,371.290021 768.482337,392.512425 770.42647,400.066799 C776.87212,426.175116 790.311432,450.37918 810.000676,472.090175 C810.000676,472.090175 810.431256,472.591295 810.848788,473.092414 C802.276334,483.440528 798.479402,508.571663 798.479402,528.002566 C798.479402,533.965886 798.766455,539.064775 799.53628,543.261649 C777.994238,561.08897 772.044407,583.752092 770.830954,599.863079 C770.830954,599.863079 771.548587,616.951248 771.548587,617.18928 C771.339821,616.7508 761.058096,629.917711 761.058096,629.917711 L759.074819,632.723979 C738.589655,659.809479 724.276136,678.676622 690.012415,695.539288 C652.747684,714.130816 580.540742,726.946943 533.659727,722.524565 C516.423484,720.657895 518.28933,705.824763 518.28933,705.085612 C518.28933,703.068606 519.08525,700.913793 520.611852,698.959428 C520.611852,698.959428 524.069538,695.376424 525.100321,694.299018 C569.450048,699.122291 611.725164,693.960762 629.3137,685.02831 C630.031333,684.364327 635.511441,676.634561 635.511441,676.634561 L637.612148,673.013974 L633.332445,673.953573 C595.59799,683.061417 520.664043,671.097193 481.037646,654.948622 C436.948876,636.82063 423.496516,619.73246 387.484381,574.093017 L377.424469,561.402169 C377.137416,548.673738 373.523154,535.669691 367.077504,524.670122 C361.075481,514.37212 353.090182,507.882624 350.728516,506.091123 C353.429427,498.449053 355.008219,487.737627 355.008219,476.487498 C355.008219,461.140718 352.098543,445.631074 346.501005,437.049406 C373.288293,416.904408 386.884179,396.283348 386.50579,372.555347 C386.283976,361.29269 379.838326,344.191993 379.838326,344.191993 L369.543552,339.606751 L370.248138,346.096246 C374.384314,386.223377 335.436407,412.269055 309.62771,429.5702 C309.62771,429.657896 302.099086,434.543809 302.099086,434.543809 L307.04423,437.512941 C327.268437,449.627501 327.529394,490.393559 322.962638,513.269657 L322.727776,514.597623 L323.797702,516.501877 L324.945915,517.078164 C324.776293,517.053108 334.666582,524.607482 334.666582,524.607482 C355.008219,550.853607 353.377235,591.46933 330.974033,615.397778 C326.472516,619.945436 324.032564,620.509195 322.753872,620.333804 C319.426664,619.682348 316.751849,612.203142 316.034216,609.710074 C315.838498,609.409402 309.74514,597.18209 309.74514,597.18209 C292.117461,562.003513 277.373362,532.475056 243.12269,493.174772 C243.12269,493.12466 242.235434,490.030248 242.235434,490.030248 C235.594066,438.615404 227.282569,400.542862 219.153743,363.810815 L214.730513,343.853737 C214.730513,343.753513 214.182502,338.667152 214.182502,338.667152 C216.596359,299.617427 229.213655,268.936396 243.944706,233.419563 L252.8825,211.232504 L260.280646,194.232031 C260.424172,194.232031 261.598481,191.75149 261.598481,191.75149 C270.249222,179.849906 281.887927,168.599777 296.031824,158.226606 L302.346995,153.66642 L294.139882,150.384089 C294.139882,150.384089 278.130139,152.062838 262.146492,159.654796 L259.275959,160.957707 C247.545919,166.257044 234.015273,170.328638 223.864026,166.495075 C223.864026,166.495075 196.907116,151.048072 195.524041,150.333977 L172.272727,173.811418 Z" id="Fill-29"></path>
                </g>
                <g id="allstate" transform="translate(1216.000000, 174.000000)">
                    <path d="M2688,511.633291 C2688,539.3761 2706.50152,558 2733.01824,558 C2759.20669,558 2778,539.22902 2778,511.633291 C2778,483.835327 2759.64438,465 2733.01824,465 C2706.87538,465 2688,484.028368 2688,511.633291 M2694.55623,511.633291 C2694.55623,485.232579 2711.58055,470.395967 2733.01824,470.395967 C2754.45593,470.395967 2771.66261,485.232579 2771.66261,511.633291 C2771.66261,537.776614 2754.64742,552.59484 2733.01824,552.59484 C2711.58055,552.59484 2694.55623,537.776614 2694.55623,511.633291 M2717.33435,484.203025 L2717.33435,535.653158 L2726.14286,535.653158 L2726.14286,514.436987 L2731.10334,514.436987 L2746.31307,536.379361 L2755.04863,534.375408 L2740.36778,513.453395 C2746.75076,511.403479 2750.6535,506.586636 2750.6535,499.214293 C2750.6535,489.571414 2743.5228,484.203025 2732.79939,484.203025 L2717.33435,484.203025 M2726.14286,492.237224 L2732.79939,492.237224 C2738.59878,492.237224 2741.7538,494.792725 2741.7538,499.802609 C2741.7538,505.014728 2738.19757,507.395572 2732.43465,507.395572 L2726.14286,507.395572 L2726.14286,492.237224" id="Fill-3589"></path>
                    <path d="M347.232572,0 L0,557.927104 L118.047588,557.927104 C118.047588,557.927104 203.650094,419.051275 206.622024,414.267481 L405.887154,414.267481 L405.960085,558 L518,557.963552 L518,0 L347.232572,0 M405.741293,93.2703223 L405.741293,315.429733 L268.75905,315.429733 C277.337534,301.852869 405.741293,93.2703223 405.741293,93.2703223" id="Fill-3590"></path>
                    <polygon id="Fill-3591" points="597 558 705 558 705 0 597 0"></polygon>
                    <polygon id="Fill-3592" points="785 558 893 558 893 0 785 0"></polygon>
                    <path d="M994.079816,169.233933 C972.561413,191.421569 961.525404,220.18332 962.033641,252.104298 C963.948606,338.316504 1004.8254,362.713773 1101.54477,387.750192 C1165.50099,403.591982 1178.54272,413.02401 1178.00725,443.712341 C1177.64423,471.30536 1161.35341,481.714375 1117.79929,481.714375 C1072.30298,481.714375 1021.00732,464.849945 976.491176,435.576874 L970.002075,431.258046 L955,524.911785 L958.249088,526.719666 C992.890904,545.875905 1052.12777,566 1114.52297,566 C1175.05766,566 1219.74624,551.56434 1247.39979,523.496524 C1268.91819,501.409326 1279.48227,471.588412 1278.98311,434.609019 C1277.5673,342.014443 1231.1362,319.99116 1132.87397,294.534728 C1073.92752,279.049036 1061.60277,270.347465 1063.14563,245.648883 C1064.45253,223.232978 1082.50402,210.358671 1112.82582,210.358671 C1150.28109,210.358671 1196.10413,223.63473 1235.46529,245.831497 L1241.66397,249.45639 L1256.62974,156.103966 L1253.05393,154.433045 C1212.64907,135.861172 1164.23039,126 1112.82582,126 C1063.33622,126 1021.26143,141.376123 994.079816,169.233933" id="Fill-3593"></path>
                    <path d="M1355.95791,0 L1355.95791,134.325654 L1300,134.325654 L1300,225.299553 L1355.95791,225.299553 L1355.95791,439.612891 C1355.95791,524.491448 1400.26096,566 1491.54823,566 C1520.99544,566 1539.0705,562.623837 1555.07541,559.074304 L1560,558.198327 L1545.91021,464.614745 L1540.30165,466.13858 C1532.80533,468.173403 1523.3483,469.186252 1510.34374,469.186252 C1478.10593,469.186252 1463.10417,454.687001 1463.10417,423.151816 L1463.10417,225.299553 L1542.94633,225.299553 L1544.43283,134.325654 L1463.10417,134.325654 L1463.10417,0 L1355.95791,0" id="Fill-3594"></path>
                    <path d="M1618.44193,158.407649 L1614.61275,159.881137 L1628.56515,249.190904 L1634.63181,246.525891 C1683.25601,225.023876 1724.51291,215.018708 1764.65107,215.018708 C1807.42691,215.018708 1827.5824,232.682377 1827.5824,270.802067 L1827.5824,281.744083 C1667.11161,298.288992 1589,352.989974 1589,449.157829 C1589,520.194522 1634.99562,566 1706.44937,566 C1755.83759,566 1796.81253,548.017984 1834.66774,511.198966 C1836.68693,523.514419 1842.21695,557.804858 1842.21695,557.804858 L1936,557.804858 L1936,267.946047 C1936,171.186977 1885.71133,126 1777.62116,126 C1710.03297,126 1659.00758,142.508527 1618.44193,158.407649 M1696.79911,438.579638 C1696.79911,391.682687 1741.92157,361.048682 1827.5824,349.597313 L1827.5824,441.326512 C1800.99644,467.267183 1770.79049,481.210749 1740.04791,481.210749 C1713.28005,481.210749 1696.79911,464.884134 1696.79911,438.579638" id="Fill-3595"></path>
                    <path d="M2025.71559,0 L2025.71559,134.325654 L1970,134.325654 L1970,225.299553 L2025.71559,225.299553 L2025.71559,439.612891 C2025.71559,524.491448 2070.30448,566 2161.63463,566 C2191.02006,566 2209.92634,562.441342 2225.22099,559.074304 L2230,558.198327 L2215.93658,464.614745 L2210.42795,466.13858 C2202.96759,468.173403 2193.36397,469.186252 2180.62298,469.186252 C2148.19138,469.186252 2133.05177,454.687001 2133.05177,423.151816 L2133.05177,225.299553 L2213.04546,225.299553 L2214.53206,134.325654 L2133.05177,134.325654 L2133.05177,0 L2025.71559,0" id="Fill-3596"></path>
                    <path d="M2307.66286,174.055073 C2268.66025,212.677417 2248,272.839494 2248,347.419003 C2248,482.397089 2324.59075,566 2447.21992,566 C2507.16566,566 2561.4992,549.34491 2608.95207,516.835194 L2611.56197,515.052344 L2598.36643,426.61027 L2591.69565,431.376664 C2542.91045,465.087075 2503.00441,479.577276 2457.95156,479.577276 C2399.44765,479.577276 2363.08233,440.127181 2356.8587,371.432895 L2610.86843,371.432895 L2612,342.461589 C2612,199.133218 2552.19114,126.218308 2434.12475,126 C2433.95136,126 2433.69585,126 2433.47684,126 C2381.86272,126 2339.60229,142.191185 2307.66286,174.055073 M2431.66998,204.299843 C2488.03851,204.299843 2502.92228,254.920036 2505.17629,299.827834 L2358.41005,299.827834 C2363.31047,239.129083 2389.76544,204.299843 2431.66998,204.299843" id="Fill-3597"></path>
                </g>
            </g>
        </g>
    </g>
</svg>