<?xml version="1.0" encoding="UTF-8"?>
<svg width="126px" height="28px" viewBox="0 0 126 28" version="1.1" xmlns="http://www.w3.org/2000/svg" xmlns:xlink="http://www.w3.org/1999/xlink">
    <!-- Generator: Sketch 48.1 (47250) - http://www.bohemiancoding.com/sketch -->
    <title>Allstate-Logo</title>
    <desc>Created with Sketch.</desc>
    <defs></defs>
    <g id="Page-1" stroke="none" stroke-width="1" fill="none" fill-rule="evenodd">
        <g id="Allstate-Logo" fill="#006CA9">
            <g id="Group-5-Copy">
                <g id="allstate" transform="translate(38.000000, 6.000000)">
                    <path d="M84.7804878,16.4163173 C84.7804878,17.3638896 85.4423308,18 86.3908963,18 C87.3277189,18 88,17.358866 88,16.4163173 C88,15.4668613 87.3433761,14.8235294 86.3908963,14.8235294 C85.4557046,14.8235294 84.7804878,15.4734547 84.7804878,16.4163173 M85.0150196,16.4163173 C85.0150196,15.5145852 85.6240196,15.0078319 86.3908963,15.0078319 C87.157773,15.0078319 87.7732968,15.5145852 87.7732968,16.4163173 C87.7732968,17.3092582 87.164623,17.8153835 86.3908963,17.8153835 C85.6240196,17.8153835 85.0150196,17.3092582 85.0150196,16.4163173 M85.8298465,15.4794202 L85.8298465,17.2367303 L86.1449477,17.2367303 L86.1449477,16.5120793 L86.322396,16.5120793 L86.8664838,17.2615342 L87.1789755,17.1930879 L86.6538068,16.4784841 C86.882141,16.408468 87.0217511,16.2439458 87.0217511,15.992139 C87.0217511,15.6627808 86.7666691,15.4794202 86.3830677,15.4794202 L85.8298465,15.4794202 M86.1449477,15.7538331 L86.3830677,15.7538331 C86.5905256,15.7538331 86.7033879,15.8411177 86.7033879,16.0122333 C86.7033879,16.1902564 86.5761732,16.2715755 86.37002,16.2715755 L86.1449477,16.2715755 L86.1449477,15.7538331" id="Fill-3589"></path>
                    <path d="M10.7907288,0 L0,16.9389633 L3.66849082,16.9389633 C3.66849082,16.9389633 6.32870619,12.7226194 6.42106298,12.5773808 L12.6135004,12.5773808 L12.6157668,16.9411765 L16.097561,16.9400699 L16.097561,0 L10.7907288,0 M12.6089676,2.83173654 L12.6089676,9.57661429 L8.35205637,9.57661429 C8.61864452,9.16441348 12.6089676,2.83173654 12.6089676,2.83173654" id="Fill-3590"></path>
                    <polygon id="Fill-3591" points="19.3170732 16.9411765 22.5365854 16.9411765 22.5365854 0 19.3170732 0"></polygon>
                    <polygon id="Fill-3592" points="25.7560976 16.9411765 28.9756098 16.9411765 28.9756098 0 25.7560976 0"></polygon>
                    <path d="M31.2137614,5.58779951 C30.5722914,6.28190471 30.2433047,7.1816707 30.2584554,8.18026814 C30.3155411,10.877281 31.5340906,11.6405111 34.4173238,12.423736 C36.3238776,12.9193213 36.7126555,13.2143875 36.6966932,14.1744235 C36.6858712,15.0376276 36.2002371,15.3632572 34.9018758,15.3632572 C33.5456172,15.3632572 32.0164782,14.8356801 30.6894388,13.9199183 L30.4959968,13.7848105 L30.0487805,16.71462 L30.1456368,16.7711767 C31.1783196,17.3704494 32.9441883,18 34.8042079,18 C36.608765,18 37.9409448,17.5484032 38.7653054,16.6703458 C39.4067754,15.9793827 39.7216937,15.0464824 39.7068135,13.8896404 C39.664608,10.9929652 38.2804829,10.3040015 35.3512565,9.50763721 C33.5940453,9.02319177 33.2266408,8.75097685 33.272634,7.97832066 C33.3115929,7.27707446 33.8497135,6.87432206 34.7536153,6.87432206 C35.8701681,6.87432206 37.2361665,7.28964262 38.4095344,7.98403346 L38.5943189,8.09743254 L39.0404531,5.17704919 L38.933857,5.12477707 C37.729376,4.54378532 36.2860009,4.23529412 34.7536153,4.23529412 C33.2783155,4.23529412 32.0240536,4.71631187 31.2137614,5.58779951" id="Fill-3593"></path>
                    <path d="M43.7014244,0 L43.7014244,4.27184059 L41.8536585,4.27184059 L41.8536585,7.16500347 L43.7014244,7.16500347 L43.7014244,13.980622 C43.7014244,16.67994 45.1643394,18 48.1787032,18 C49.1510689,18 49.747919,17.8926309 50.2764114,17.7797482 L50.4390244,17.7518902 L49.9737704,14.7757339 L49.7885723,14.8241951 C49.5410391,14.8889068 49.2287618,14.9211175 48.799343,14.9211175 C47.7348299,14.9211175 47.2394624,14.4600106 47.2394624,13.4571249 L47.2394624,7.16500347 L49.8759015,7.16500347 L49.9249865,4.27184059 L47.2394624,4.27184059 L47.2394624,0 L43.7014244,0" id="Fill-3594"></path>
                    <path d="M51.3495782,5.24911628 L51.2311527,5.29521204 L51.6626601,8.08912722 L51.8502843,8.0057565 C53.3540904,7.33309986 54.6300471,7.02010397 55.8714045,7.02010397 C57.1943375,7.02010397 57.8176885,7.57268399 57.8176885,8.76519836 L57.8176885,9.10750205 C52.8547908,9.62508345 50.4390244,11.3363174 50.4390244,14.344777 C50.4390244,16.5670479 51.8615361,18 54.0713941,18 C55.598829,18 56.8660656,17.437461 58.0368178,16.2856361 C58.0992654,16.6709056 58.2702931,17.7436279 58.2702931,17.7436279 L61.1707317,17.7436279 L61.1707317,8.67585226 C61.1707317,5.6488974 59.6154485,4.23529412 56.2725319,4.23529412 C54.1822245,4.23529412 52.6041564,4.75173735 51.3495782,5.24911628 M53.7729395,14.013855 C53.7729395,12.5467579 55.1684468,11.5884213 57.8176885,11.2301833 L57.8176885,14.0997866 C56.9954616,14.9112996 56.061279,15.3475021 55.1104999,15.3475021 C54.2826471,15.3475021 53.7729395,14.8367497 53.7729395,14.013855" id="Fill-3595"></path>
                    <path d="M64.0836667,0 L64.0836667,4.27184059 L62.2439024,4.27184059 L62.2439024,7.16500347 L64.0836667,7.16500347 L64.0836667,13.980622 C64.0836667,16.67994 65.5560202,18 68.5718001,18 C69.542126,18 70.1664231,17.8868271 70.6714624,17.7797482 L70.8292683,17.7518902 L70.3648852,14.7757339 L70.1829867,14.8241951 C69.9366408,14.8889068 69.6195231,14.9211175 69.1988077,14.9211175 C68.1278956,14.9211175 67.6279761,14.4600106 67.6279761,13.4571249 L67.6279761,7.16500347 L70.2694186,7.16500347 L70.3185071,4.27184059 L67.6279761,4.27184059 L67.6279761,0 L64.0836667,0" id="Fill-3596"></path>
                    <path d="M72.5882911,5.73862127 C71.4383885,6.94686036 70.8292683,8.82893604 70.8292683,11.1620383 C70.8292683,15.3846148 73.0873715,18 76.7028118,18 C78.470175,18 80.072075,17.4789718 81.4711142,16.4619566 L81.5480614,16.406183 L81.1590209,13.6394122 L80.9623482,13.7885213 C79.5240283,14.8430983 78.34749,15.2964014 77.0192099,15.2964014 C75.2943559,15.2964014 74.2222075,14.0622674 74.0387182,11.9132751 L81.5276139,11.9132751 L81.5609756,11.0069535 C81.5609756,6.52315146 79.797648,4.24212354 76.3167307,4.23529412 C76.3116189,4.23529412 76.3040856,4.23529412 76.2976285,4.23529412 C74.7759042,4.23529412 73.5299522,4.7418098 72.5882911,5.73862127 M76.2443574,6.68478118 C77.9062546,6.68478118 78.3450686,8.26835408 78.411523,9.67322369 L74.084456,9.67322369 C74.2289337,7.77435901 75.0088981,6.68478118 76.2443574,6.68478118" id="Fill-3597"></path>
                </g>
                <g id="Group-4">
                    <path d="M18.0014119,0 C8.07628951,0 0,6.17086156 0,13.7601439 C0,21.3457705 8.07628951,28 18.0014119,28 C27.928148,28 36,21.3457705 36,13.7601439 C36,6.17086156 27.928148,0 18.0014119,0 M18.0022188,27.0596666 C9.40915967,27.0596666 2.41764251,20.8518416 2.41764251,13.7763916 C2.41764251,6.69728577 9.40915967,0.939520984 18.0022188,0.939520984 C26.5976983,0.939520984 33.5863916,6.69728577 33.5863916,13.7763916 C33.5863916,20.8518416 26.5976983,27.0596666 18.0022188,27.0596666" id="Fill-28"></path>
                    <path d="M14.9349457,18.7321008 L15.2518128,19.0419662 C15.2518128,19.0427607 15.8913308,19.3848045 15.8913308,19.3848045 L16.4944938,19.7014234 L16.5721614,19.7427388 L17.0162711,19.981494 L17.7660936,20.3755793 C17.8107111,20.388689 17.9015987,20.388689 17.9015987,20.388689 L18.8654201,20.3306885 C19.4194212,20.3203597 20.0638967,20.3306885 20.4976783,20.5197859 C20.9731856,20.755363 20.8116536,21.1812293 20.8116536,21.1812293 C20.8116536,21.1812293 21.304099,20.8435555 21.2111458,20.4403332 C21.162397,20.100673 20.7381173,19.6517654 19.333078,19.5731073 C18.8897945,19.5476825 18.2263152,19.6080665 18.2263152,19.6080665 C18.2263152,19.6080665 18.1693039,19.6080665 18.1655858,19.6080665 C18.1655858,19.5977376 17.5355697,19.2080223 17.5355697,19.2080223 L17.2707563,19.0638157 C17.2344013,19.0479252 16.3990619,18.6236479 16.3990619,18.6236479 C16.3990619,18.6236479 15.8694352,18.4238244 15.8677827,18.4222354 C15.8677827,18.4067421 15.3935148,17.7703262 15.3935148,17.7703262 L15.2191759,17.5339545 C15.2171103,17.53316 14.7147499,16.833182 14.7147499,16.833182 L14.4990984,16.528481 C14.4854653,16.5121932 14.2078451,16.0990393 14.2078451,16.0990393 C14.230567,16.1049983 14.4953803,15.7156802 14.4652222,15.3001427 C14.4288671,15.3561569 14.4007746,15.3708556 14.2049532,15.5321445 C14.0050005,15.6886663 13.4134051,15.9433121 13.017631,16.0430252 L12.8399871,16.0887105 L14.9349457,18.7321008 Z M17.2509263,17.7230519 L17.3463583,17.8402446 C17.3864314,17.8728202 17.9825713,18.1012466 17.9825713,18.1012466 C18.380411,18.2577684 18.9261495,18.4977154 19.178156,18.6470864 L19.8536159,19.028062 C19.9056697,19.0499115 20.6005465,18.9998563 21.0566369,19.0348155 C21.6284024,19.0777199 22.0729252,19.2850914 22.3038623,19.6080665 C22.616185,20.0323437 22.2356966,20.4864157 22.2356966,20.4864157 C22.3195611,20.4470867 22.9648628,20.0526042 22.9202453,19.4225445 C22.876454,18.8171152 22.3344336,18.2514121 20.3187951,18.2752479 C20.3187951,18.270878 19.7635546,17.9602181 19.7635546,17.9602181 L19.6011963,17.8692448 L18.7080194,17.4282825 C18.7080194,17.4282825 17.9825713,17.1903217 17.9772006,17.1903217 L17.9772006,17.1895272 C17.9772006,17.1641024 17.806993,16.8812509 17.806993,16.8812509 C17.5710984,16.4720696 17.24349,16.0672583 16.9604992,15.709324 L16.8733297,15.6080218 C16.8733297,15.6080218 16.3784056,14.9509482 16.3201549,14.8679202 C16.4763163,14.5429588 16.3445293,14.0749826 16.3445293,14.0749826 C16.3445293,14.0749826 16.2606649,14.2315043 16.1243335,14.3987522 C15.9867628,14.5667946 15.6211469,14.8460707 15.3654223,14.9791539 L15.2299172,15.063771 L17.0579968,17.4632417 L17.2509263,17.7230519 Z M18.0746982,13.4274433 C18.1854158,13.0417006 17.9726563,12.6619168 17.9726563,12.6619168 L17.8652437,12.9078228 C17.773943,13.1211533 17.5322647,13.3642784 17.1563206,13.5982665 L17.0451899,13.6566643 L18.5237655,15.6886663 C18.5237655,15.6902553 18.611348,15.8217495 18.611348,15.8217495 L18.8926864,16.1884236 C18.9315202,16.2229855 19.5115481,16.5392071 19.5115481,16.5392071 L19.7309177,16.6579889 L20.397702,17.0405535 L21.0083012,17.4318579 L21.0529188,17.444173 L21.9638601,17.4997899 C22.510425,17.5446806 22.8310102,17.7405315 22.9974997,17.8525597 C23.5729833,18.2506176 23.2647918,18.848499 23.2647918,18.848499 C23.2647918,18.848499 24.0340312,18.1509045 23.5287789,17.3941178 C23.3395675,17.1331158 23.0784723,16.8812509 22.3125379,16.7962365 C22.3125379,16.7962365 21.3730909,16.6722903 21.3714384,16.6722903 C21.3714384,16.6659341 20.8665992,16.3370001 20.8665992,16.3370001 L20.2047725,15.9433121 L20.0345648,15.845188 L19.4904788,15.6183507 L18.0746982,13.4274433 Z M11.9327639,1.36811711 C11.9810995,1.4138024 12.1331296,1.56317342 12.1331296,1.56436521 L12.8771684,2.21945247 C12.8771684,2.22382236 13.3035137,2.60638697 13.3035137,2.60638697 C13.6183152,2.89599195 13.6918515,3.0449657 13.6827628,3.10177436 C13.6691296,3.15778849 13.610879,3.1848024 13.5546939,3.21539168 C13.498922,3.24598096 13.4109263,3.26624139 13.4109263,3.26624139 L13.3753975,3.53757226 L13.5509758,3.53042152 C14.5325616,3.5077775 15.4575492,4.14657697 16.0561678,4.69003323 C17.0951781,5.64187621 17.8780506,7.18484706 18.0536288,8.62611848 L18.8654201,12.6861499 L19.1698935,13.3118397 L19.2293835,13.4389639 L19.362823,13.7039386 C19.478085,13.9693105 19.656142,14.2036959 19.6714276,14.2183946 C19.6916708,14.2366687 20.0919892,14.5429588 20.0919892,14.5429588 L20.6782141,15.1189906 L20.8529661,15.2981564 L21.132652,15.5678982 C21.155787,15.5837888 21.979972,15.6858854 21.979972,15.6858854 C23.4193007,15.9170927 23.357745,16.6846055 23.357745,16.6846055 C23.357745,16.6846055 24.2133276,15.4217053 22.1712491,14.9779622 C22.1712491,14.9779622 21.5263604,14.8599749 21.5131404,14.8599749 C21.5131404,14.8599749 21.5131404,14.8599749 21.5131404,14.8571941 C21.5131404,14.8432899 21.2822033,14.5429588 21.2822033,14.5429588 C21.2549371,14.5151504 21.2057751,14.4607253 21.2057751,14.4607253 C21.1929683,14.445232 20.582369,13.8684056 20.582369,13.8684056 L20.30227,13.6121708 C20.30227,13.6058146 20.0465455,12.9531109 20.0465455,12.9531109 L19.6850608,12.1113098 C19.593347,11.8522941 19.5330307,11.4383457 19.4504056,10.8678756 C19.4458612,10.8460261 19.3884368,10.4555162 19.3884368,10.4555162 L19.1199053,8.75364002 C19.1236235,8.72543432 19.1802216,8.41954154 19.1802216,8.41954154 C19.296723,7.7815366 19.5462507,7.07639416 19.9193029,6.31762117 C20.367957,5.40907989 21.2958365,4.80881497 21.3078171,4.8052396 C21.9985627,4.39248298 23.014851,4.16564561 23.5589371,4.06593251 C23.766326,4.04686387 23.832426,3.92847939 23.8691942,3.80969765 L23.8939817,3.74216288 L23.8249898,3.73103951 C23.5238214,3.67661443 23.1772093,3.57928491 23.1487036,3.52605162 C23.143333,3.51572277 23.1379623,3.49307876 23.1379623,3.47361286 C23.1379623,3.42196862 23.1772093,3.34251595 23.2495062,3.23565211 C23.2532243,3.23565211 23.694029,2.8260736 23.694029,2.8260736 L23.9514061,2.57937306 C23.9514061,2.57937306 25.0325551,1.57548858 25.1746703,1.44240536 L24.1716019,1.11704668 C24.0394018,1.24814358 23.0619473,2.22302784 23.0619473,2.22302784 C22.3278236,2.9810063 21.4978548,3.83750608 21.1173663,3.98965795 C20.1845293,4.35553749 19.2293835,5.23150317 18.8526132,6.07171515 C18.8526132,6.07529052 18.68695,6.48725262 18.5977149,6.71329546 C18.3155503,5.93068667 17.9627413,5.28235288 17.4793846,4.71784166 C16.9514104,4.10883695 16.307348,3.65476494 15.5054718,3.34251595 C15.0716902,2.94406081 13.6426896,1.68751684 12.8680796,1.07692308 L11.9327639,1.36811711 Z M15.7475632,21.8577688 C14.4338246,22.5001437 13.7092028,21.9435777 14.0277224,21.2670382 C14.4553072,21.5435335 15.1179602,21.7457406 15.7475632,21.8577688 Z M13.4943776,20.8987751 C12.599135,21.133955 12.2686347,20.5285257 12.4797418,20.0379054 C12.6499494,20.2266055 13.2824443,20.7728426 13.4943776,20.8987751 Z M5.45454545,5.51157383 C5.52271114,5.55805364 5.69952878,5.68041076 5.69952878,5.68041076 C5.72390317,5.69630129 6.8331447,6.58100677 6.99798171,6.71329546 C6.97071544,6.78043297 6.51379882,7.99844239 6.51379882,7.99844239 C6.0944766,9.01265572 5.67474126,10.0340198 5.64995374,10.8388753 L5.65738999,10.9683832 C5.66110812,10.9878491 6.02135342,12.7938083 6.02135342,12.7938083 L6.05068531,12.9288778 C6.25352985,13.8771454 6.48116192,14.9573045 6.57742012,15.7347488 C6.59931576,15.9536409 6.65384831,16.0859296 6.74308338,16.1383684 C7.29088757,16.6861946 8.1865433,17.800121 9.26727918,19.9246854 C9.29908983,19.9810968 9.3147886,20.0140696 9.33213986,20.0383027 C9.43376869,20.3306885 9.56514255,20.5265393 9.72171705,20.6222798 C9.92001721,20.7394725 10.2947219,20.7474178 10.5397052,20.6222798 C11.0937063,20.2738799 11.484936,19.7848487 11.7245487,19.1949126 C11.8100656,19.2930366 12.0393502,19.5810526 12.0757052,19.6219707 C11.1457601,21.171695 12.7912383,21.7477269 13.3753975,21.5260539 C13.037461,22.4651845 14.2842733,23.2211766 15.460028,22.717844 C15.6120581,23.3268487 16.1135923,23.5056172 16.5932308,23.5938097 C17.0691512,23.6859747 17.7177579,23.7348381 18.7749457,23.6438648 C20.3658913,23.5179324 21.81183,23.0515452 22.3922711,22.7615429 C23.6200796,22.1604835 24.2897558,21.393368 24.6830511,20.8574597 C24.6904874,20.8455418 24.7603055,20.761322 24.8086412,20.700938 C24.9375363,20.9226109 25.0734545,21.1299824 25.2283765,21.2888877 C25.6212587,21.6555618 25.9885272,21.8212206 26.288043,21.76759 C26.5012157,21.72985 26.6685315,21.603123 26.7804884,21.3687376 C27.3249876,20.1058375 28.516028,18.5501542 29.4484519,17.5077352 C29.4484519,17.5045571 29.5376869,17.3416791 29.5376869,17.3416791 C29.7413577,16.6011802 30.4668058,14.7678098 30.853078,13.7774323 L31.1278063,13.0651391 C31.1278063,13.0615638 31.1823389,12.8935214 31.1823389,12.8935214 C31.2013427,12.6102726 31.2112577,12.325832 31.2112577,12.0457614 C31.2112577,10.7717378 31.0183281,9.55333114 30.6543647,8.52283001 C30.4775471,8.00122324 30.2957719,7.68539887 30.1268037,7.37791704 L29.9289166,7.03229793 C30.19373,6.65251417 30.9675137,6.15196235 31.5872017,5.74874005 C31.5872017,5.74874005 31.6227305,5.72887688 31.6363636,5.72252067 L30.8753868,4.92163776 C30.8282905,4.95222704 30.3428682,5.27520214 30.3428682,5.27520214 C29.7905196,5.63750631 29.2303217,5.78449375 28.8845358,5.65180779 C28.832482,5.63234189 28.3730866,5.38286051 28.3730866,5.38286051 C28.3466466,5.36458639 28.265674,5.32803817 28.265674,5.32803817 C28.249149,5.32525732 28.1099258,5.30658595 28.1099258,5.30658595 C28.0900958,5.30857226 27.9372394,5.33916154 27.9372394,5.33916154 L27.8380893,5.36299734 L27.9946638,5.53699869 C28.3185541,5.90724813 28.4858698,6.22545607 28.7209381,6.65688407 C28.7279613,6.66681565 28.8609876,6.90914629 28.8609876,6.90914629 C28.8609876,6.90994082 28.9948402,7.20987465 28.9948402,7.20987465 C29.277418,7.87687981 29.5306638,8.59155657 29.6897171,9.28835648 C30.0008004,10.5492704 30.1594406,11.5889085 30.1677031,12.4771894 C30.1677031,12.4895045 30.1528306,12.577697 30.1528306,12.577697 C30.1507649,12.5828614 29.7215277,13.746843 29.7215277,13.746843 C29.2782442,14.9537291 28.7209381,16.4569736 28.5961743,17.0755126 L28.5693211,17.1490064 C27.3786939,18.3419882 26.5338526,19.7486977 26.1760861,20.5897042 C26.1190748,20.700938 26.0798279,20.716034 26.0653685,20.7184175 C26.0104228,20.7279519 25.8703733,20.6048002 25.7960108,20.5400463 C25.4973211,20.2810306 25.3180247,19.7435333 25.3407466,19.1730631 C25.3700785,18.4754687 25.6819882,17.8553406 26.2025261,17.4632417 C26.288043,17.4008713 26.2554061,17.2864595 26.2364024,17.220911 C26.0913954,16.4263843 26.3248112,15.2107585 26.8341947,14.8667284 L26.9659817,14.7741661 L26.8370866,14.6804119 C25.3791673,13.5946912 24.6656998,11.5837441 24.6049704,10.0828832 L24.5975342,9.88703235 L24.3707283,9.97959471 C24.3455277,9.99985514 24.2600108,10.1273767 24.2600108,10.1273767 C24.201347,10.418968 24.1769726,10.7165182 24.1769726,11.0025478 C24.1769726,11.773636 24.3318946,12.4466001 24.3934502,12.6861499 C24.5975342,13.5140467 25.0230533,14.2815595 25.6464594,14.9700169 C25.6464594,14.9700169 25.6600925,14.9859074 25.6733125,15.001798 C25.4018892,15.3299375 25.2816697,16.1268478 25.2816697,16.7430032 C25.2816697,16.9321006 25.2907585,17.0937867 25.3151329,17.22687 C24.6330629,17.7921757 24.4446778,18.5108251 24.4062571,19.0217058 C24.4062571,19.0217058 24.428979,19.563573 24.428979,19.571121 C24.422369,19.5572168 24.0968263,19.9747406 24.0968263,19.9747406 L24.0340312,20.0637275 C23.3854244,20.9226109 22.9322259,21.5208895 21.8473588,22.055606 C20.6674728,22.6451448 18.3812372,23.0515452 16.8968779,22.9113112 C16.3511393,22.852119 16.4102162,22.3817592 16.4102162,22.3583206 C16.4102162,22.2943612 16.4354169,22.2260319 16.4837526,22.1640589 C16.4837526,22.1640589 16.5932308,22.0504415 16.6258677,22.0162769 C18.0300807,22.1692233 19.3686068,22.0055508 19.9254997,21.722302 C19.9482216,21.7012471 20.1217343,21.4561356 20.1217343,21.4561356 L20.1882474,21.3413265 L20.0527423,21.3711212 C18.8579839,21.6599317 16.4854051,21.2805452 15.2307434,20.7684727 C13.8347929,20.1936327 13.4088607,19.6517654 12.2686347,18.2045351 L11.9501151,17.8021073 C11.9410264,17.3984877 11.8265906,16.9861284 11.6225067,16.6373312 C11.4324691,16.3107807 11.1796364,16.1049983 11.1048607,16.0481896 C11.1903776,15.805859 11.2403658,15.4661988 11.2403658,15.1094563 C11.2403658,14.6228087 11.1482388,14.1309967 10.9710081,13.8588713 C11.8191544,13.2200718 12.249631,12.5661764 12.2376503,11.8137596 C12.2306272,11.4566198 12.0265433,10.9143554 12.0265433,10.9143554 L11.7005874,10.768957 L11.7228962,10.9747394 C11.8538569,12.2471739 10.6206778,13.0730844 9.80351587,13.6217051 C9.80351587,13.6244859 9.56514255,13.7794186 9.56514255,13.7794186 L9.72171705,13.87357 C10.3620613,14.2577237 10.3703238,15.5504186 10.22573,16.2758215 L10.2182937,16.3179314 L10.25217,16.3783155 L10.288525,16.3965896 C10.2831544,16.395795 10.5963034,16.6353448 10.5963034,16.6353448 C11.2403658,17.4676116 11.1887251,18.7555393 10.4793889,19.5143123 C10.3368607,19.6585189 10.2596062,19.6763958 10.21912,19.6708341 C10.113773,19.6501764 10.0290823,19.4130102 10.0063604,19.3339548 C10.0001635,19.3244204 9.807234,18.9366914 9.807234,18.9366914 C9.24910167,17.8211759 8.78227004,16.8848262 7.69781603,15.6386111 C7.69781603,15.6370221 7.66972351,15.538898 7.66972351,15.538898 C7.45944271,13.9085292 7.19628187,12.7012459 6.93890479,11.5364698 L6.7988553,10.9036293 C6.7988553,10.9004512 6.78150403,10.7391622 6.78150403,10.7391622 C6.85793222,9.50089238 7.25742442,8.52799444 7.72384293,7.40175284 L8.00683378,6.69819945 L8.24107585,6.15911309 C8.24562023,6.15911309 8.28280151,6.08045495 8.28280151,6.08045495 C8.5567036,5.70305477 8.9252114,5.34631228 9.37303927,5.01737823 L9.57299193,4.87277437 L9.31313609,4.76869137 C9.31313609,4.76869137 8.80623131,4.82192466 8.30015277,5.06266625 L8.2092652,5.10398164 C7.83786552,5.27202403 7.40945455,5.40113462 7.08804303,5.27957204 C7.08804303,5.27957204 6.23452609,4.78974633 6.1907348,4.76710232 L5.45454545,5.51157383 Z" id="Fill-29"></path>
                </g>
            </g>
        </g>
    </g>
</svg>