<?xml version="1.0" encoding="UTF-8"?>
<svg width="33px" height="33px" viewBox="0 0 33 33" version="1.1" xmlns="http://www.w3.org/2000/svg" xmlns:xlink="http://www.w3.org/1999/xlink">
    <!-- Generator: Sketch 48.1 (47250) - http://www.bohemiancoding.com/sketch -->
    <title>Group 2 Copy 5</title>
    <desc>Created with Sketch.</desc>
    <defs></defs>
    <g id="Virtual-Assist" stroke="none" stroke-width="1" fill="none" fill-rule="evenodd" transform="translate(-270.000000, -2143.000000)">
        <g id="Group" transform="translate(270.000000, 2143.000000)">
            <g id="Group-2-Copy-5">
                <circle id="Oval-2" fill="#FF009F" cx="16.5" cy="16.5" r="16.5"></circle>
                <path d="M11,22.232 L17.6,15.848 C17.792001,15.655999 17.991999,15.4520011 18.2,15.236 C18.408001,15.0199989 18.5959992,14.7920012 18.764,14.552 C18.9320008,14.3119988 19.0719994,14.0600013 19.184,13.796 C19.2960006,13.5319987 19.352,13.2560014 19.352,12.968 C19.352,12.6159982 19.2840007,12.3040014 19.148,12.032 C19.0119993,11.7599986 18.8320011,11.528001 18.608,11.336 C18.3839989,11.143999 18.1240015,10.9960005 17.828,10.892 C17.5319985,10.7879995 17.2160017,10.736 16.88,10.736 C16.1599964,10.736 15.5680023,10.9439979 15.104,11.36 C14.6399977,11.7760021 14.3600005,12.3359965 14.264,13.04 L11.24,12.8 C11.3040003,12.0159961 11.4919984,11.324003 11.804,10.724 C12.1160016,10.123997 12.5199975,9.624002 13.016,9.224 C13.5120025,8.823998 14.0879967,8.52000104 14.744,8.312 C15.4000033,8.10399896 16.1119962,8 16.88,8 C17.6480038,8 18.3639967,8.099999 19.028,8.3 C19.6920033,8.500001 20.2719975,8.79599804 20.768,9.188 C21.2640025,9.58000196 21.6559986,10.079997 21.944,10.688 C22.2320014,11.296003 22.376,12.0079959 22.376,12.824 C22.376,13.8960054 22.1320024,14.8199961 21.644,15.596 C21.1559976,16.3720039 20.5280038,17.1119965 19.76,17.816 L14.504,22.688 L22.376,22.688 L22.376,25.28 L11,25.28 L11,22.232 Z" id="2" fill="#FFFFFF"></path>
            </g>
        </g>
    </g>
</svg>