<?xml version="1.0" encoding="UTF-8"?>
<svg width="33px" height="33px" viewBox="0 0 33 33" version="1.1" xmlns="http://www.w3.org/2000/svg" xmlns:xlink="http://www.w3.org/1999/xlink">
    <!-- Generator: Sketch 48.1 (47250) - http://www.bohemiancoding.com/sketch -->
    <title>Group 2 Copy 6</title>
    <desc>Created with Sketch.</desc>
    <defs></defs>
    <g id="Virtual-Assist" stroke="none" stroke-width="1" fill="none" fill-rule="evenodd" transform="translate(-740.000000, -1993.000000)">
        <g id="Group-17" transform="translate(740.000000, 1993.000000)">
            <g id="Group-2-Copy-6">
                <circle id="Oval-2" fill="#FF009F" cx="16.5" cy="16.5" r="16.5"></circle>
                <path d="M15.224,15.128 L15.968,15.128 C16.3840021,15.128 16.787998,15.1040002 17.18,15.056 C17.572002,15.0079998 17.9239984,14.9040008 18.236,14.744 C18.5480016,14.5839992 18.799999,14.3520015 18.992,14.048 C19.184001,13.7439985 19.28,13.3360026 19.28,12.824 C19.28,12.1679967 19.0560022,11.6320021 18.608,11.216 C18.1599978,10.7999979 17.5760036,10.592 16.856,10.592 C16.2799971,10.592 15.7640023,10.7559984 15.308,11.084 C14.8519977,11.4120016 14.520001,11.871997 14.312,12.464 L11.264,11.648 C11.456001,11.0239969 11.7279982,10.4800023 12.08,10.016 C12.4320018,9.55199768 12.8479976,9.17200148 13.328,8.876 C13.8080024,8.57999852 14.3359971,8.36000072 14.912,8.216 C15.4880029,8.07199928 16.0879969,8 16.712,8 C17.4480037,8 18.1439967,8.09599904 18.8,8.288 C19.4560033,8.48000096 20.0319975,8.76399812 20.528,9.14 C21.0240025,9.51600188 21.4199985,9.98799716 21.716,10.556 C22.0120015,11.1240028 22.16,11.7839962 22.16,12.536 C22.16,13.4480046 21.9040026,14.2599964 21.392,14.972 C20.8799974,15.6840036 20.1680046,16.1519989 19.256,16.376 L19.256,16.424 C20.3440054,16.5840008 21.1679972,17.0479962 21.728,17.816 C22.2880028,18.5840038 22.568,19.4959947 22.568,20.552 C22.568,21.3680041 22.4120016,22.0879969 22.1,22.712 C21.7879984,23.3360031 21.3680026,23.8599979 20.84,24.284 C20.3119974,24.7080021 19.7000035,25.0279989 19.004,25.244 C18.3079965,25.4600011 17.5840038,25.568 16.832,25.568 C16.1279965,25.568 15.4640031,25.4920008 14.84,25.34 C14.2159969,25.1879992 13.6520025,24.9520016 13.148,24.632 C12.6439975,24.3119984 12.2080018,23.9000025 11.84,23.396 C11.4719982,22.8919975 11.192001,22.2880035 11,21.584 L14.072,20.768 C14.2480009,21.4720035 14.5599978,22.0159981 15.008,22.4 C15.4560022,22.7840019 16.0639962,22.976 16.832,22.976 C17.2160019,22.976 17.5799983,22.9120006 17.924,22.784 C18.2680017,22.6559994 18.5719987,22.4760012 18.836,22.244 C19.1000013,22.0119988 19.3079992,21.7320016 19.46,21.404 C19.6120008,21.0759984 19.688,20.712002 19.688,20.312 C19.688,19.7679973 19.5720012,19.3240017 19.34,18.98 C19.1079988,18.6359983 18.8120018,18.3720009 18.452,18.188 C18.0919982,18.0039991 17.6880022,17.8800003 17.24,17.816 C16.7919978,17.7519997 16.3520022,17.72 15.92,17.72 L15.224,17.72 L15.224,15.128 Z" id="3" fill="#FFFFFF"></path>
            </g>
        </g>
    </g>
</svg>