<?xml version="1.0" encoding="UTF-8"?>
<svg width="120px" height="83px" viewBox="0 0 120 83" version="1.1" xmlns="http://www.w3.org/2000/svg" xmlns:xlink="http://www.w3.org/1999/xlink">
    <!-- Generator: Sketch 48 (47235) - http://www.bohemiancoding.com/sketch -->
    <title>Group 11</title>
    <desc>Created with Sketch.</desc>
    <defs></defs>
    <g id="Virtual-Assist-Copy" stroke="none" stroke-width="1" fill="none" fill-rule="evenodd" transform="translate(-80.000000, -30.000000)">
        <g id="Group-11" transform="translate(80.000000, 30.000000)">
            <g id="Group-8">
                <polygon id="Rectangle-11" fill="#FFFFFF" points="0 17 120 0 120 66 0 83"></polygon>
                <g id="Group" transform="translate(10.000000, 14.000000)" fill="#080B0A">
                    <path d="M0,19.8338039 L0.0262569832,57.7731243 L95.1407821,44.299668 L95.1145251,6.36034757 L0,19.8338039 Z M1.67653631,21.3018233 L93.4396648,8.30306602 L93.4648045,42.8305223 L1.70111732,55.8298427 L1.67653631,21.3018233 Z" id="Fill-1"></path>
                    <path d="M99.8693296,-0.000168932038 L4.75424581,13.4738505 L4.78162011,51.4126078 L99.8961453,37.9391515 L99.8693296,-0.000168932038 Z M6.43189944,14.942433 L98.1944693,1.94311262 L98.2190503,36.471132 L6.45592179,49.4704524 L6.43189944,14.942433 Z" id="Fill-2"></path>
                    <polygon id="Fill-3" points="10.7902235 23.0660932 13.2544693 22.716967 13.2494413 43.0164039 16.472905 42.5597243 16.4896648 44.9934718 10.8019553 45.7992777"></polygon>
                    <g id="Group-18" transform="translate(17.877095, 11.598311)">
                        <path d="M2.94553073,29.111101 C2.9527933,30.0847126 3.27513966,30.7857806 4.38128492,30.6286738 C5.48798883,30.4721301 5.79692737,29.6815282 5.79022346,28.7079165 L5.80586592,9.64112039 L8.27011173,9.29199417 L8.25446927,28.3587903 C8.25782123,30.6973728 7.40977654,32.4734117 4.3773743,32.9030621 C1.34329609,33.3332757 0.484636872,31.7982466 0.481284916,29.4602272 L0.496927374,10.3934311 L2.96173184,10.0443049 L2.94553073,29.111101 Z" id="Fill-4"></path>
                        <path d="M18.5067039,24.2438311 C18.3608939,21.1140835 18.2497207,18.4669184 18.2608939,15.3140835 L18.2553073,7.87769515 L20.6251397,7.5420835 L20.6368715,30.275268 L18.2670391,30.6114427 L14.001676,14.8134816 C14.1396648,17.8795981 14.2793296,20.4907243 14.2798883,23.7381612 L14.2849162,31.1751126 L11.9156425,31.5107243 L11.9044693,8.77753981 L14.273743,8.44192816 L18.5067039,24.2438311 Z" id="Fill-6"></path>
                        <path d="M26.5314525,22.1646155 L28.9007263,21.8290039 L27.7398324,10.2689845 L26.5314525,22.1646155 Z M32.17,28.6414699 L29.6739106,28.995101 L29.1565922,24.1315476 L26.3124581,24.534732 L25.8186034,29.5413146 L23.322514,29.8949456 L26.1862011,6.75407184 L29.2834078,6.31541165 L32.17,28.6414699 Z" id="Fill-8"></path>
                        <path d="M38.7340782,15.6289728 C39.8396648,15.4724291 40.1430168,14.8777883 40.1368715,13.9041767 L40.1519553,8.70557476 C40.1463687,7.73252621 39.8212291,7.2589534 38.7162011,7.41549709 L37.2944134,7.61652621 L37.3122905,15.830565 L38.7340782,15.6289728 Z M34.8441341,5.52796311 L38.8888268,4.95472039 C41.9217877,4.5250699 42.6134078,6.01842913 42.6167598,8.35644854 L42.6011173,13.5550505 C42.6061453,15.4386427 42.0977654,16.8740019 40.3273743,17.5795748 L43.8296089,26.9896524 L41.0810056,27.3793223 L38.0111732,18.0706039 L37.3156425,18.1691476 L37.3206704,27.9120214 L34.8564246,28.2611476 L34.8441341,5.52796311 Z" id="Fill-10"></path>
                        <polygon id="Fill-12" points="46.1887151 3.92057476 48.6524022 3.57144854 48.6641341 26.304633 46.2004469 26.6543223"></polygon>
                        <path d="M54.5582123,18.1942621 L56.9280447,17.8586505 L55.7682682,6.29863107 L54.5582123,18.1942621 Z M60.1984358,24.6711165 L57.7012291,25.0247476 L57.1850279,20.1611942 L54.3414525,20.5638155 L53.8475978,25.5709612 L51.3515084,25.9245922 L54.2146369,2.78371845 L57.3118436,2.34505825 L60.1984358,24.6711165 Z" id="Fill-14"></path>
                        <path d="M69.4750838,17.0235068 C69.3287151,13.8937592 69.2175419,11.2465942 69.2287151,8.09432233 L69.2231285,0.657933981 L71.5924022,0.321759223 L71.6052514,23.0549437 L69.2343017,23.3911184 L64.9706145,7.59315728 C65.107486,10.6592738 65.2465922,13.2704 65.2488268,16.5178369 L65.2538547,23.9547883 L62.8834637,24.2904 L62.8722905,1.55721553 L65.2415642,1.22160388 L69.4750838,17.0235068 Z" id="Fill-16"></path>
                    </g>
                </g>
            </g>
        </g>
    </g>
</svg>