<?xml version="1.0" encoding="UTF-8"?>
<svg width="200px" height="115px" viewBox="0 0 200 115" version="1.1" xmlns="http://www.w3.org/2000/svg" xmlns:xlink="http://www.w3.org/1999/xlink">
    <!-- Generator: Sketch 47.1 (45422) - http://www.bohemiancoding.com/sketch -->
    <title>Group</title>
    <desc>Created with Sketch.</desc>
    <defs></defs>
    <g id="Page-1" stroke="none" stroke-width="1" fill="none" fill-rule="evenodd">
        <g id="Lunarian-Home" transform="translate(-70.000000, -50.000000)" fill="#080B0A">
            <g id="Group" transform="translate(70.000000, 50.000000)">
                <path d="M0,39.3256456 L0.0525139665,114.55016 L190.281564,87.8355485 L190.22905,12.611034 L0,39.3256456 Z M3.35307263,42.2363738 L186.87933,16.4629757 L186.929609,84.9225874 L3.40223464,110.697102 L3.35307263,42.2363738 Z" id="Fill-1"></path>
                <path d="M199.738659,-0.000334951455 L9.50849162,26.7153932 L9.56324022,101.938791 L199.792291,75.2241796 L199.738659,-0.000334951455 Z M12.8637989,29.6272379 L196.388939,3.8527233 L196.438101,72.3134515 L12.9118436,98.087966 L12.8637989,29.6272379 Z" id="Fill-2"></path>
                <polygon id="Fill-3" points="21.5804469 45.7344951 26.5089385 45.0422621 26.4988827 85.2911456 32.9458101 84.3856602 32.9793296 89.2111942 21.6039106 90.8089126"></polygon>
                <g id="Group-18" transform="translate(35.754190, 22.996650)">
                    <path d="M5.89106145,57.7202864 C5.90558659,59.6507233 6.55027933,61.0407718 8.76256983,60.729267 C10.9759777,60.4188786 11.5938547,58.8513058 11.5804469,56.9208689 L11.6117318,19.1160146 L16.5402235,18.4237816 L16.5089385,56.2286359 C16.5156425,60.8654806 14.8195531,64.3869369 8.7547486,65.2388301 C2.68659218,66.0918398 0.969273743,63.0482476 0.962569832,58.4125194 L0.993854749,20.607665 L5.92346369,19.915432 L5.89106145,57.7202864 Z" id="Fill-4"></path>
                    <path d="M37.0134078,48.069665 C36.7217877,41.8641311 36.4994413,36.6154417 36.5217877,30.3641311 L36.5106145,15.619568 L41.2502793,14.9541311 L41.273743,60.0285485 L36.5340782,60.6951019 L28.003352,29.3715583 C28.2793296,35.4509272 28.5586592,40.6281602 28.5597765,47.0670437 L28.5698324,61.8127233 L23.8312849,62.4781602 L23.8089385,17.4037427 L28.547486,16.7383058 L37.0134078,48.069665 Z" id="Fill-6"></path>
                    <path d="M53.062905,43.9470825 L57.8014525,43.2816456 L55.4796648,20.3609175 L53.062905,43.9470825 Z M64.34,56.7891214 L59.3478212,57.4902864 L58.3131844,47.847034 L52.6249162,48.6464515 L51.6372067,58.5732961 L46.6450279,59.2744612 L52.3724022,13.3916942 L58.5668156,12.5219369 L64.34,56.7891214 Z" id="Fill-8"></path>
                    <path d="M77.4681564,30.9884806 C79.6793296,30.6780922 80.2860335,29.4990631 80.273743,27.5686262 L80.3039106,17.2610534 C80.2927374,15.331733 79.6424581,14.3927524 77.4324022,14.7031408 L74.5888268,15.101733 L74.624581,31.3881893 L77.4681564,30.9884806 Z M69.6882682,10.9606165 L77.7776536,9.82401456 C83.8435754,8.97212136 85.2268156,11.9330922 85.2335196,16.5688204 L85.2022346,26.8763932 C85.2122905,30.6111019 84.1955307,33.4570728 80.6547486,34.8560534 L87.6592179,53.513966 L82.1620112,54.2865874 L76.0223464,35.8296456 L74.6312849,36.025034 L74.6413408,55.342801 L69.7128492,56.035034 L69.6882682,10.9606165 Z" id="Fill-10"></path>
                    <polygon id="Fill-12" points="92.3774302 7.7735534 97.3048045 7.08132039 97.3282682 52.1557379 92.4008939 52.8490874"></polygon>
                    <path d="M109.116425,36.0748301 L113.856089,35.4093932 L111.536536,12.488665 L109.116425,36.0748301 Z M120.396872,48.9168689 L115.402458,49.618034 L114.370056,39.9747816 L108.682905,40.7730825 L107.695196,50.7010437 L102.703017,51.4022087 L108.429274,5.51944175 L114.623687,4.64968447 L120.396872,48.9168689 Z" id="Fill-14"></path>
                    <path d="M138.950168,33.7535049 C138.65743,27.5479709 138.435084,22.2992816 138.45743,16.0490874 L138.446257,1.30452427 L143.184804,0.637970874 L143.210503,45.7123883 L138.468603,46.3789417 L129.941229,15.0553981 C130.214972,21.134767 130.493184,26.312 130.497654,32.7508835 L130.507709,47.4965631 L125.766927,48.162 L125.744581,3.08758252 L130.483128,2.42214563 L138.950168,33.7535049 Z" id="Fill-16"></path>
                </g>
            </g>
        </g>
    </g>
</svg>