<?xml version="1.0" encoding="UTF-8"?>
<svg width="155px" height="27px" viewBox="0 0 155 27" version="1.1" xmlns="http://www.w3.org/2000/svg" xmlns:xlink="http://www.w3.org/1999/xlink">
    <!-- Generator: Sketch 48.1 (47250) - http://www.bohemiancoding.com/sketch -->
    <title>T-Mobile-Logo</title>
    <desc>Created with Sketch.</desc>
    <defs></defs>
    <g id="Page-1" stroke="none" stroke-width="1" fill="none" fill-rule="evenodd">
        <g id="T-Mobile-Logo" fill="#D8127D">
            <g id="tmo_kurzformpos_1_4c-copy">
                <polygon id="Fill-6" points="0.337 17.648 5.524 17.648 5.524 12.461 0.337 12.461"></polygon>
                <path d="M12.693,20.785 C12.693,22.431 12.933,23.498 13.416,23.99 C13.825,24.411 14.517,24.669 15.493,24.766 C15.782,24.79 16.274,24.802 16.974,24.802 L16.974,26.243 L4.474,26.243 L4.474,24.802 C5.478,24.802 6.219,24.753 6.698,24.657 C7.666,24.453 8.276,23.89 8.527,22.964 C8.658,22.484 8.724,21.757 8.724,20.785 L8.724,1.937 C6.604,1.998 4.945,2.7 3.748,4.045 C2.609,5.333 1.916,7.303 1.664,9.959 L0.312,9.725 L0.564,0.711 L20.884,0.711 L21.136,9.725 L19.784,9.959 C19.532,7.303 18.835,5.333 17.692,4.045 C16.489,2.7 14.822,1.998 12.693,1.937 L12.693,20.785" id="Fill-7"></path>
                <polygon id="Fill-8" points="15.995 17.648 21.182 17.648 21.182 12.461 15.995 12.461"></polygon>
                <polygon id="Fill-9" points="31.558 17.648 36.745 17.648 36.745 12.461 31.558 12.461"></polygon>
                <path d="M66.5,26.243 L65.365,26.243 L58.879,3.883 L58.879,20.008 C58.879,21.619 58.94,22.657 59.061,23.125 C59.42,24.411 60.268,25.053 61.6,25.053 L62.086,25.053 L62.086,26.243 L54.465,26.243 L54.465,25.053 L55.059,25.053 C55.623,25.053 56.122,24.861 56.555,24.478 C56.963,24.116 57.227,23.57 57.348,22.837 C57.432,22.286 57.473,21.342 57.473,20.008 L57.473,5.756 C57.473,4.905 57.438,4.346 57.366,4.081 C57.221,3.493 56.903,3.12 56.411,2.963 C56.122,2.868 55.702,2.82 55.149,2.82 L54.465,2.82 L54.465,1.649 L61.6,1.649 L66.861,19.739 L72.23,1.649 L79.422,1.649 L79.422,2.82 L78.918,2.82 C77.992,2.82 77.344,3.012 76.971,3.397 C76.719,3.637 76.566,3.973 76.52,4.405 C76.447,4.946 76.41,5.631 76.41,6.46 L76.41,21.432 C76.41,22.682 76.477,23.511 76.609,23.919 C76.875,24.675 77.645,25.053 78.918,25.053 L79.422,25.053 L79.422,26.243 L70.176,26.243 L70.176,25.053 L70.482,25.053 C71.406,25.053 72.061,24.868 72.445,24.494 C72.697,24.254 72.848,23.912 72.896,23.469 C72.969,22.94 73.004,22.261 73.004,21.432 L73.004,3.883 L66.5,26.243" id="Fill-10"></path>
                <path d="M87.283,9.93 C86.441,9.93 85.689,10.273 85.027,10.959 C83.932,12.088 83.385,14.295 83.385,17.578 C83.385,20.295 83.721,22.353 84.396,23.747 C84.998,24.974 85.959,25.586 87.283,25.586 C89.871,25.586 91.166,22.953 91.166,17.686 C91.166,15.257 90.883,13.412 90.316,12.149 C89.969,11.368 89.457,10.766 88.783,10.345 C88.324,10.069 87.826,9.93 87.283,9.93 Z M87.283,8.743 C89.584,8.743 91.449,9.651 92.881,11.465 C94.133,13.052 94.76,15.139 94.76,17.723 C94.76,20.342 94.133,22.453 92.881,24.052 C91.461,25.866 89.559,26.774 87.176,26.774 C84.924,26.774 83.088,25.866 81.668,24.052 C80.416,22.453 79.791,20.356 79.791,17.758 C79.791,15.149 80.416,13.052 81.668,11.465 C83.102,9.651 84.973,8.743 87.283,8.743 Z" id="Fill-11"></path>
                <path d="M104.789,10.211 C103.984,10.211 103.234,10.524 102.539,11.147 C101.242,12.335 100.594,14.481 100.594,17.587 C100.594,19.986 100.9,21.84 101.512,23.148 C101.836,23.842 102.305,24.395 102.916,24.802 C103.42,25.137 103.99,25.306 104.627,25.306 C107.064,25.306 108.281,22.71 108.281,17.516 C108.281,15.141 107.977,13.306 107.363,12.01 C106.787,10.811 105.93,10.211 104.789,10.211 Z M100.906,11.67 C101.219,10.958 101.621,10.403 102.113,10.004 C103.025,9.268 104.082,8.899 105.283,8.899 C107.061,8.899 108.52,9.53 109.66,10.792 C111.137,12.438 111.875,14.655 111.875,17.443 C111.875,20.099 111.215,22.322 109.893,24.111 C108.656,25.782 107.027,26.618 105.01,26.618 C103.916,26.618 102.914,26.323 102,25.735 C101.809,25.615 101.4,25.298 100.775,24.781 C100.535,24.589 100.324,24.493 100.145,24.493 C99.928,24.493 99.688,24.686 99.424,25.069 C99.184,25.407 98.926,25.798 98.648,26.243 L97.422,26.243 C97.541,25.895 97.607,25.685 97.619,25.611 C97.729,25.119 97.781,24.118 97.781,22.604 L97.781,5.724 C97.781,4.391 97.631,3.561 97.332,3.237 C97.078,2.937 96.604,2.787 95.908,2.787 L95.637,2.787 L95.637,1.651 L100.906,1.399 L100.906,11.67 Z" id="Fill-12"></path>
                <path d="M116.889,1.461 C117.428,1.461 117.889,1.66 118.273,2.055 C118.67,2.452 118.867,2.925 118.867,3.477 C118.867,4.029 118.676,4.502 118.291,4.899 C117.895,5.295 117.416,5.493 116.852,5.493 C116.287,5.493 115.814,5.295 115.43,4.899 C115.033,4.502 114.836,4.029 114.836,3.477 C114.836,2.901 115.039,2.421 115.447,2.038 C115.844,1.653 116.324,1.461 116.889,1.461 Z M118.711,9.018 L118.711,22.116 C118.711,23.474 118.861,24.32 119.162,24.657 C119.414,24.957 119.889,25.107 120.586,25.107 L121.18,25.107 L121.18,26.243 L113.117,26.243 L113.117,25.107 L113.713,25.107 C114.408,25.107 114.883,24.957 115.135,24.657 C115.436,24.31 115.586,23.462 115.586,22.116 L115.586,13.36 C115.586,12.028 115.436,11.192 115.135,10.856 C114.883,10.568 114.408,10.423 113.713,10.423 L113.297,10.423 L113.297,9.27 L118.711,9.018 Z" id="Fill-13"></path>
                <path d="M128.051,1.392 L128.051,22.115 C128.051,23.461 128.201,24.31 128.502,24.657 C128.766,24.957 129.24,25.107 129.926,25.107 L130.52,25.107 L130.52,26.243 L122.457,26.243 L122.457,25.107 L123.053,25.107 C123.748,25.107 124.223,24.957 124.475,24.657 C124.775,24.31 124.926,23.461 124.926,22.115 L124.926,5.735 C124.926,4.402 124.775,3.567 124.475,3.231 C124.223,2.93 123.748,2.78 123.053,2.78 L122.637,2.78 L122.637,1.645 L128.051,1.392" id="Fill-14"></path>
                <path d="M141.77,16.336 C141.77,14.836 141.607,13.601 141.283,12.629 C140.695,10.913 139.77,10.055 138.508,10.055 C137.09,10.055 136.088,11.112 135.5,13.223 C135.26,14.075 135.133,15.112 135.121,16.336 L141.77,16.336 Z M145.176,17.649 L135.084,17.649 C135.096,20.026 135.344,21.783 135.824,22.924 C136.496,24.532 137.65,25.336 139.283,25.336 C140.557,25.336 141.619,24.832 142.473,23.822 C142.941,23.269 143.41,22.507 143.879,21.532 L144.979,22.107 C143.426,25.22 141.334,26.774 138.699,26.774 C136.764,26.774 135.176,26.112 133.938,24.79 C132.396,23.145 131.627,20.765 131.627,17.649 C131.627,14.79 132.396,12.5 133.938,10.78 C135.152,9.422 136.613,8.743 138.32,8.743 C140.859,8.743 142.766,10.02 144.039,12.573 C144.725,13.934 145.104,15.625 145.176,17.649 Z" id="Fill-15"></path>
                <polygon id="Fill-16" points="47.12 17.648 52.307 17.648 52.307 12.461 47.12 12.461"></polygon>
                <polygon id="Fill-17" points="149.623 17.648 154.811 17.648 154.811 12.461 149.623 12.461"></polygon>
            </g>
        </g>
    </g>
</svg>